{"title":"The Haunting - [horror] - (1963) - BDRip x264 AAC - [=Faith=]","uid":12026688,"size":2677972854,"categoryP":"video","categoryS":"movies","magnet":"?xt=urn:btih:f820e4b73568c5e5f2c15d5ddf5f7d1e4f80ccf7&amp;dn=The+Haunting+-+%5Bhorror%5D+-+%281963%29+-+BDRip+x264+AAC+-+%5B%3DFaith%3D%5D&amp;tr=udp%3A%2F%2Ftracker.openbittorrent.com%3A80&amp;tr=udp%3A%2F%2Fopen.demonii.com%3A1337&amp;tr=udp%3A%2F%2Ftracker.coppersurfer.tk%3A6969&amp;tr=udp%3A%2F%2Fexodus.desync.com%3A6969","seeders":4,"leechers":0,"uploader":"Faithwyn","files":5,"time":1434537917,"description":" The Haunting - 1963\n\n\n\nA scientist doing research on the paranormal invites two women to a haunted mansion. One of the participants soon starts losing her mind.\n\n\nThe Film:\n\nDirected by: Robert Wise\nProduced by: Robert Wise\nScreenplay by: Nelson Gidding\nBased on: The Haunting of Hill House by Shirley Jackson\nStarring: Julie Harris\nClaire Bloom\nRichard Johnson\nRuss Tamblyn\nMusic by: Humphrey Searle\nCinematography: Davis Boulton\nEdited by: Ernest Walter\nDistributed by: Metro-Goldwyn-Mayer\nRelease date: 18 September 1963\nRunning time: 114 minutes\nCountry: United Kingdom\nLanguage: English\nIMDB Rating: 7.6\n\n\n\nThe Haunting is a 1963 British psychological horror film directed and produced by Robert Wise and adapted by Nelson Gidding from the 1959 novel The Haunting of Hill House by Shirley Jackson. It stars Julie Harris, Claire Bloom, Richard Johnson, and Russ Tamblyn. The film, about a small group of people invited by a paranormal investigator to stay at a haunted house that comes to life, is often cited as one of the most frightening films ever made. \n\n\n\nGeneral:\n\nComplete name : The Haunting (1963).mp4\nFormat : MPEG-4\nFormat profile : Base Media\nCodec ID : isom\nFile size : 2.49 GiB\nDuration : 1h 51mn\nOverall bit rate mode : Variable\nOverall bit rate : 3 191 Kbps\nEncoded date : UTC 2015-06-17 04:32:43\nTagged date : UTC 2015-06-17 04:32:43\n\n\nVideo:\n\nID : 1\nFormat : AVC\nFormat/Info : Advanced Video Codec\nFormat profile : &lt;a class=&quot;__cf_email__&quot; href=&quot;/cdn-cgi/l/email-protection&quot; data-cfemail=&quot;367e5f515e767a051806&quot;&gt;[email&amp;#160;protected]&lt;/a&gt;&lt;script data-cfhash='f9e31' type=&quot;text/javascript&quot;&gt;\n/* &lt;![CDATA[ */!function(){try{var t=&quot;currentScript&quot;in document?document.currentScript:function(){for(var t=document.getElementsByTagName(&quot;script&quot;),e=t.length;e--;)if(t[e].getAttribute(&quot;data-cfhash&quot;))return t[e]}();if(t&amp;&amp;t.previousSibling){var e,r,n,i,c=t.previousSibling,a=c.getAttribute(&quot;data-cfemail&quot;);if(a){for(e=&quot;&quot;,r=parseInt(a.substr(0,2),16),n=2;a.length-n;n+=2)i=parseInt(a.substr(n,2),16)^r,e+=String.fromCharCode(i);e=document.createTextNode(e),c.parentNode.replaceChild(e,c)}t.parentNode.removeChild(t);}}catch(u){}}()/* ]]&gt; */&lt;/script&gt;\nFormat settings, CABAC : No\nFormat settings, ReFrames : 1 frame\nCodec ID : avc1\nCodec ID/Info : Advanced Video Coding\nDuration : 1h 51mn\nBit rate : 3 022 Kbps\nMaximum bit rate : 23.6 Mbps\nWidth : 1 920 pixels\nHeight : 800 pixels\nDisplay aspect ratio : 2.40:1\nFrame rate mode : Constant\nFrame rate : 23.976 fps\nColor space : YUV\nChroma subsampling : 4:2:0\nBit depth : 8 bits\nScan type : Progressive\nBits/(Pixel*Frame) : 0.082\nStream size : 2.34 GiB (94%)\nWriting library : x264 core 116 r2019 9cc407d\nEncoding settings : (see .nfo file for details)\nEncoded date : UTC 2015-06-17 04:32:43\nTagged date : UTC 2015-06-17 04:33:55\n\n\nAudio:\n\nID : 2\nFormat : AAC\nFormat/Info : Advanced Audio Codec\nFormat profile : LC\nCodec ID : 40\nDuration : 1h 51mn\nBit rate mode : Variable\nBit rate : 192 Kbps\nMaximum bit rate : 317 Kbps\nChannel(s) : 2 channels\nChannel positions : Front: L R\nSampling rate : 44.1 KHz\nCompression mode : Lossy\nStream size : 152 MiB (6%)","torrent":{"xt":"urn:btih:f820e4b73568c5e5f2c15d5ddf5f7d1e4f80ccf7","amp;dn":"The+Haunting+-+%5Bhorror%5D+-+%281963%29+-+BDRip+x264+AAC+-+%5B%3DFaith%3D%5D","amp;tr":["udp%3A%2F%2Ftracker.openbittorrent.com%3A80","udp%3A%2F%2Fopen.demonii.com%3A1337","udp%3A%2F%2Ftracker.coppersurfer.tk%3A6969","udp%3A%2F%2Fexodus.desync.com%3A6969"],"infoHash":"f820e4b73568c5e5f2c15d5ddf5f7d1e4f80ccf7","infoHashBuffer":{"type":"Buffer","data":[248,32,228,183,53,104,197,229,242,193,93,93,223,95,125,30,79,128,204,247]},"announce":[],"urlList":[]}}